<?xml version="1.0" standalone="no"?><!DOCTYPE svg PUBLIC "-//W3C//DTD SVG 1.1//EN" "http://www.w3.org/Graphics/SVG/1.1/DTD/svg11.dtd"><svg t="1722688728173" class="icon" viewBox="0 0 1024 1024" version="1.1" xmlns="http://www.w3.org/2000/svg" p-id="4815" xmlns:xlink="http://www.w3.org/1999/xlink" width="200" height="200"><path d="M281.386667 99.2c92.8 14.72 147.626667 113.066667 125.653333 202.24a170.666667 170.666667 0 0 1-202.453333 129.28l-23.893334-42.666667s-29.653333 61.653333-51.626666 42.666667-29.013333-101.973333-29.013334-101.973333-29.226667 76.586667-47.146666 36.266666-8.96-119.04 17.92-166.4a192 192 0 0 1 210.56-99.413333z" fill="#BDBEC0" p-id="4816"></path><path d="M281.386667 165.546667a192 192 0 0 0-210.56 99.626666A224.64 224.64 0 0 0 46.506667 341.333333a237.44 237.44 0 0 1 24.32-142.933333 192 192 0 0 1 210.56-99.413333c90.453333 14.293333 144.426667 107.946667 128 194.986666a157.653333 157.653333 0 0 0-128-128.426666z" fill="#E0E0E0" p-id="4817"></path><path d="M378.453333 822.186667a133.333333 133.333333 0 0 0-31.146666 113.066666 133.12 133.12 0 0 0 106.666666-49.706666 133.333333 133.333333 0 0 0 31.36-113.066667 133.12 133.12 0 0 0-106.88 49.706667z" fill="#6DD627" p-id="4818"></path><path d="M484.693333 772.48a133.12 133.12 0 0 0-106.666666 49.706667 146.773333 146.773333 0 0 0-17.706667 26.453333 155.733333 155.733333 0 0 0 88.746667 40.96l3.84-4.053333a133.333333 133.333333 0 0 0 31.786666-113.066667z" fill="#46B000" p-id="4819"></path><path d="M742.613333 99.2c-92.8 14.72-147.626667 113.066667-125.653333 202.24a170.666667 170.666667 0 0 0 202.453333 129.28l23.893334-42.666667s29.653333 61.653333 51.626666 42.666667 29.013333-101.973333 29.013334-101.973333 29.226667 77.866667 47.146666 36.693333 8.96-119.04-17.92-166.4a192 192 0 0 0-210.56-99.84z" fill="#BDBEC0" p-id="4820"></path><path d="M742.613333 165.546667a192 192 0 0 1 210.56 99.626666A224.64 224.64 0 0 1 977.493333 341.333333a237.44 237.44 0 0 0-24.32-142.933333 192 192 0 0 0-210.56-99.413333c-90.453333 14.293333-144.426667 107.946667-128 194.986666a157.653333 157.653333 0 0 1 128-128.426666z" fill="#E0E0E0" p-id="4821"></path><path d="M238.293333 967.04a273.706667 35.626667 0 1 0 547.413334 0 273.706667 35.626667 0 1 0-547.413334 0Z" fill="#45413C" opacity=".15" p-id="4822"></path><path d="M818.773333 481.066667v-61.44c0-151.893333-137.386667-274.986667-306.773333-274.986667S205.226667 267.733333 205.226667 419.626667v61.44a178.986667 178.986667 0 0 0-38.4 110.293333c0 106.666667 85.333333 194.773333 204.586666 194.773333h5.973334a96.426667 96.426667 0 0 1 49.92 15.146667 164.693333 164.693333 0 0 0 85.333333 21.333333 164.693333 164.693333 0 0 0 85.333333-21.333333 96.426667 96.426667 0 0 1 49.92-15.146667h5.973334c120.106667 0 204.586667-87.253333 204.586666-194.773333a178.986667 178.986667 0 0 0-39.68-110.293333z" fill="#BDBEC0" p-id="4823"></path><path d="M818.773333 481.066667v-61.44c0-151.893333-137.386667-274.986667-306.773333-274.986667S205.226667 267.733333 205.226667 419.626667v61.44c0-151.893333 137.386667-258.986667 306.773333-258.986667s306.773333 107.093333 306.773333 258.986667z" fill="#E0E0E0" p-id="4824"></path><path d="M595.413333 611.2c0 72.746667-37.333333 92.8-83.413333 92.8s-83.413333-20.053333-83.413333-92.8 37.333333-145.28 83.413333-145.28 83.413333 72.32 83.413333 145.28z" fill="#656769" p-id="4825"></path><path d="M678.613333 465.92m-35.626666 0a35.626667 35.626667 0 1 0 71.253333 0 35.626667 35.626667 0 1 0-71.253333 0Z" fill="#45413C" p-id="4826"></path><path d="M345.386667 465.92m-35.626667 0a35.626667 35.626667 0 1 0 71.253333 0 35.626667 35.626667 0 1 0-71.253333 0Z" fill="#45413C" p-id="4827"></path><path d="M810.666667 625.066667c0 11.733333-19.413333 21.333333-42.666667 21.333333s-42.666667-9.6-42.666667-21.333333 19.413333-21.333333 42.666667-21.333334 42.666667 9.6 42.666667 21.333334zM301.013333 625.066667c0 11.733333-19.413333 21.333333-42.666666 21.333333s-42.666667-9.6-42.666667-21.333333 19.413333-21.333333 42.666667-21.333334 42.666667 9.6 42.666666 21.333334z" fill="#FFCCDD" p-id="4828"></path></svg>